<mxfile host="app.diagrams.net" modified="2024-04-11T00:08:49.487Z" agent="Mozilla/5.0 (Windows NT 10.0; Win64; x64) AppleWebKit/537.36 (KHTML, like Gecko) Chrome/123.0.0.0 Safari/537.36 Edg/123.0.0.0" version="24.2.3" etag="EHz087tvFYeq3kkziDAS" type="github">
  <diagram name="Page-1" id="3XFXZ_c4mBn2fq71TLqU">
    <mxGraphModel>
      <root>
        <mxCell id="0" />
        <mxCell id="1" parent="0" />
      </root>
    </mxGraphModel>
  </diagram>
</mxfile>
